<?xml version="1.0" standalone="no"?>
<!DOCTYPE svg PUBLIC "-//W3C//DTD SVG 20010904//EN"
 "http://www.w3.org/TR/2001/REC-SVG-20010904/DTD/svg10.dtd">
<svg version="1.0" xmlns="http://www.w3.org/2000/svg"
 width="512.000000pt" height="512.000000pt" viewBox="0 0 512.000000 512.000000"
 preserveAspectRatio="xMidYMid meet">

<g transform="translate(0.000000,512.000000) scale(0.100000,-0.100000)"
fill="#000000" stroke="none">
<path d="M2018 4620 c-27 -58 -408 -872 -845 -1810 -1017 -2179 -1014 -2173
-1052 -2247 -17 -34 -31 -67 -31 -73 0 -7 109 -10 324 -10 l324 0 61 128 c34
70 137 289 229 487 l168 360 437 3 437 2 0 -480 0 -479 290 -3 c160 -2 295 -2
300 0 12 4 -55 -137 855 1812 419 899 785 1682 813 1740 27 58 111 232 186
388 75 156 136 285 136 288 0 2 -148 4 -330 4 l-330 0 -51 -107 c-28 -60 -325
-697 -661 -1418 -336 -720 -615 -1314 -619 -1319 -5 -6 -9 607 -9 1412 l0
1421 -291 3 -291 3 -50 -105z m49 -2577 c-2 -2 -137 -2 -300 -1 l-295 3 279
600 c154 330 288 616 297 635 16 33 17 4 20 -599 1 -349 1 -636 -1 -638z"/>
<path d="M3905 2268 c-59 -128 -147 -318 -196 -423 -49 -104 -209 -451 -357
-770 l-269 -580 468 -3 c258 -1 680 -1 938 0 l468 3 -269 580 c-148 319 -308
666 -357 770 -49 105 -137 295 -196 423 -59 127 -111 232 -115 232 -4 0 -56
-105 -115 -232z m292 -958 c94 -204 175 -379 178 -390 6 -20 1 -20 -355 -20
-356 0 -361 0 -355 20 11 35 350 760 355 760 3 0 82 -167 177 -370z"/>
</g>
</svg>
